<svg id="Layer_1" data-name="Layer 1" xmlns="http://www.w3.org/2000/svg" viewBox="0 0 228.57 243.13"><defs><style>.cls-1{fill:#f7941d;}.cls-2{fill:none;stroke:#000;stroke-linecap:round;stroke-linejoin:round;stroke-width:7px;}</style></defs><circle class="cls-1" cx="114.29" cy="128.84" r="114.29"/><circle cx="64.61" cy="116.83" r="19.16"/><circle cx="162.34" cy="116.83" r="19.16"/><polygon points="114.29 136.1 94.72 169.98 133.85 169.98 114.29 136.1"/><path class="cls-2" d="M251.61,483.21c5.64-4.75,26.3-20.93,56.88-20.88a88.5,88.5,0,0,1,49,15.12" transform="translate(-191.38 -273.97)"/><path d="M213.54,346.43a116.76,116.76,0,0,1-.22-32.87l-4.91-.66a38.85,38.85,0,0,0,2.77,11.5c1.51,3.3,4.33,6.56,8,7.37,6.54,1.42,14.87-4.18,11.71-11.38l-3.92,3,5,6.29c.86,1.09,2.63.82,3.53,0A69.78,69.78,0,0,0,254.28,301h-4.82l5.62,14.53c.63,1.62,2.82,2.64,4.18,1.1a78.11,78.11,0,0,0,16.64-30h-4.82a74.32,74.32,0,0,0,4.13,14.18c1.55,3.84,3.28,9,7.51,10.57,4.92,1.88,8.2-2.75,10.71-6.15l9.32-12.61-3.92.51,7.6,8.43a2.55,2.55,0,0,0,3.54,0,73.32,73.32,0,0,0,12.38-14.22l-4.66-1.26c-.65,7-.55,15.48,6.52,19.3a9.47,9.47,0,0,0,9.17.22c2.38-1.35,3.86-3.76,5.08-6.13a38.81,38.81,0,0,1,2-3.69,5.24,5.24,0,0,1,1-1.17,3.19,3.19,0,0,1,1.17-.74l-2.83-1.15,7.86,17.12a2.52,2.52,0,0,0,3.93.51l12.59-13.94-4.18-1.1,3.26,10.84c.82,2.74,1.74,6,4.64,7.21,3.63,1.54,6.44-1.56,8.84-3.82l8.19-7.72-4.18-1.1,3.58,24.77c.21,1.45,1.88,1.91,3.07,1.74a33.15,33.15,0,0,0,12-4.18l-1.26.34c-.45-.05.35.11.36.11.75.22-.38-.19.31.13.49.22.36.16.83.65s-.2-.35.21.26c.14.21.26.43.38.65a6.09,6.09,0,0,1,.37,1.1,7.13,7.13,0,0,1-.73,5.2,7.47,7.47,0,0,1-2.32,2.2,13.33,13.33,0,0,1-3.84,1.59,38.44,38.44,0,0,1-8.89.89q-23.91.48-47.83.9l-26.9.51c-2.79.05-3.44,4.17-.67,4.91a30.25,30.25,0,0,0,20.68-1.92c1.74-.81,1.53-3.45,0-4.32-7.3-4.19-15.72-5.37-24-5.66-9.12-.31-18.28-.07-27.41-.06l-57.34.1c-4.57,0-10.08-.59-14.1,2.07-3.45,2.29-5.53,7.27-3,11a2.56,2.56,0,0,0,3.42.9,104.91,104.91,0,0,1,37.07-13.34l-2.82-3.67a39.26,39.26,0,0,1-21.72,17.77c-3,1-1.78,5.74,1.33,4.82a209.2,209.2,0,0,1,52.94-8.51q7.63-.22,15.27.1c1.79.07,3.26-2.22,2.16-3.76a10,10,0,0,0-10.4-4.08c-2.8.6-2.12,4.91.66,4.91l52.23,0h14.74c3.22,0,3.23-5,0-5l-56.58-.06L236,333.74c-5.13,0-10.27-.11-15.4,0-4.6.1-9.27.69-13.27,3.12-2,1.21-1.31,4.84,1.27,4.65l17.31-1.23-2.41-3.17c-1.63,3.92-4.42,10-9.28,10.55a5.88,5.88,0,0,1-4.49-2,3.92,3.92,0,0,1-1.09-2,1.55,1.55,0,0,1,0-.71,3.1,3.1,0,0,1,.61-1.1l-.9.9a6.13,6.13,0,0,1,7.4.79l-.39-3a7.35,7.35,0,0,1-4.65,2.82c-2.84.58-2.07,4.84.66,4.91l10.1.3v-5c-1.26.16-3.14-.78-2.86-2.37a2.52,2.52,0,0,0-4.17-2.44L199.61,350.7l3.54,3.53c9.89-8.35,23.09-11.16,35.66-12.29,7-.64,14-.8,21-1l24.92-.82,27.92-.92v-5l-34.52,3.57a2.57,2.57,0,0,0-2.5,2.5,2.54,2.54,0,0,0,2.5,2.5l98.89.48c4.47,0,8.94,0,13.4.11,3.86.13,7.77.59,11.21,2.46a2.55,2.55,0,0,0,3-.39,2.5,2.5,0,0,0,.39-3A30.35,30.35,0,0,1,399,322.45c.12-2.4-3.61-3.52-4.66-1.26a23.25,23.25,0,0,1-9.25,10.32l3.42.9a29.67,29.67,0,0,1-3.14-5.09c-1.25-2.57-5.35-.77-4.57,1.92a24.19,24.19,0,0,0,6.7,10.95l3.53-3.53a26.75,26.75,0,0,1-8.29-29.36l-4.91-.67.23,10.81c.06,3.22,4.89,3.22,5,0l.36-11.12h-5a55.91,55.91,0,0,0,12.25,30.86,2.43,2.43,0,0,0,2.43.64,7.78,7.78,0,0,0,5.62-7.21,2.52,2.52,0,0,0-3.16-2.41,14.63,14.63,0,0,1-14.58-4.51,14.48,14.48,0,0,1-1.84-15.52,2.51,2.51,0,0,0-3.93-3C366.7,313.09,366,327,373.07,336l3.54-3.53a14.11,14.11,0,0,1-4-11.64l-4.91.66,3.13,11.39,1.74-3.07c-.63.21.08-.06.19.12,0-.08-.29-.32-.22-.21-.15-.27-.18-.32-.09-.14-.07-.3-.09-.34-.05-.1,0-.31,0-.34,0-.09a.34.34,0,0,1-.19.31.35.35,0,0,1-.3.2c-.25,0-.23,0,.08,0a.27.27,0,0,1-.26-.07,2.69,2.69,0,0,1,.46.28c-.17-.15.21.23.15.3a1.38,1.38,0,0,1,0-.55c-1.43,2.87,2.88,5.41,4.31,2.52a5.17,5.17,0,0,0-7.59-6.48c-4,3.24,0,10.31,4.84,8.72a2.56,2.56,0,0,0,1.75-3.08l-3.13-11.39a2.5,2.5,0,0,0-2.74-1.79,2.54,2.54,0,0,0-2.17,2.46A18.84,18.84,0,0,0,373.07,336a2.5,2.5,0,1,0,3.54-3.53c-5.42-6.93-4.21-17.85,2.09-23.76l-3.92-3A19.18,19.18,0,0,0,396.85,333l-3.17-2.41a2.63,2.63,0,0,1-1.95,2.39l2.43.64a50,50,0,0,1-10.78-27.32c-.24-3.17-4.89-3.25-5,0L378,317.44h5l-.23-10.81a2.51,2.51,0,0,0-4.91-.66,31.58,31.58,0,0,0,9.58,34.22,2.56,2.56,0,0,0,3.53,0,2.52,2.52,0,0,0,0-3.53,19.24,19.24,0,0,1-5.41-8.75L381,329.84a29.91,29.91,0,0,0,3.14,5.09,2.56,2.56,0,0,0,3.42.9,27.85,27.85,0,0,0,11.05-12.12L394,322.45a34.67,34.67,0,0,0,6.79,22.44l3.42-3.42c-6.82-3.72-14.87-3.2-22.38-3.24l-25-.12-50.19-.24-28.47-.14v5l34.52-3.57a2.57,2.57,0,0,0,2.5-2.5,2.53,2.53,0,0,0-2.5-2.5l-50.85,1.68c-14.07.46-28.55.47-42.18,4.43a54.27,54.27,0,0,0-20,10.43,2.51,2.51,0,0,0,0,3.53,2.56,2.56,0,0,0,3.54,0L218,342.3l-4.18-2.43c-.79,4.46,2.87,9.31,7.68,8.7a2.58,2.58,0,0,0,2.5-2.5,2.53,2.53,0,0,0-2.5-2.5l-10.1-.3.67,4.92a12.44,12.44,0,0,0,7.64-5.13,2.52,2.52,0,0,0-.39-3,11.29,11.29,0,0,0-10.94-2.7,6.1,6.1,0,0,0-4.42,3.95,6.91,6.91,0,0,0,.16,4.62,10.89,10.89,0,0,0,7.35,6.46c3.77.95,7.44-.63,10.22-3.16,3.17-2.87,5-6.87,6.65-10.75.61-1.45-.93-3.27-2.41-3.16l-17.31,1.23,1.26,4.66c3.24-2,7-2.35,10.74-2.43,4.46-.11,8.94,0,13.41,0l27.92,0,55.83.06,31.41,0v-5l-52.23,0H282.17l.66,4.91a4.79,4.79,0,0,1,4.76,1.78l2.16-3.76a214.69,214.69,0,0,0-54.51,4.73q-7.59,1.65-15,3.86l1.33,4.82a44.47,44.47,0,0,0,24.71-20.07c1.17-2.05-.76-4-2.82-3.67a108.74,108.74,0,0,0-38.28,13.84l3.42.9c-1.51-2.22,1.15-4.5,3.35-5.08a20.35,20.35,0,0,1,5-.45c2.22,0,4.43,0,6.65,0l26.67,0c17.6,0,35.21-.31,52.81-.06,8.38.12,17.08.79,24.51,5.05v-4.32a24.85,24.85,0,0,1-16.83,1.42l-.66,4.91,58-1.09,14.7-.28a54,54,0,0,0,11.84-1c3.55-.86,7.1-2.66,9.22-5.73a12,12,0,0,0,1.69-8.72c-.53-3.22-2.71-6.31-6-7.13a4.2,4.2,0,0,0-3.46.55,26.3,26.3,0,0,1-2.93,1.41,31.34,31.34,0,0,1-7.12,1.84l3.07,1.75-3.58-24.77c-.29-2-3-2.26-4.18-1.11l-6.58,6.21c-1.13,1.07-2.25,2.14-3.38,3.19a4.84,4.84,0,0,1-1.26,1c-.18.08-.51.07-.31.14-.5-.16-.92-1.28-1.1-1.79-.48-1.34-.84-2.73-1.25-4.09l-2.68-9a2.52,2.52,0,0,0-4.18-1.1l-12.6,13.93,3.93.51-7.86-17.13a2.5,2.5,0,0,0-2.82-1.14c-3.13,1.1-4.95,3.61-6.43,6.45a39.8,39.8,0,0,1-2.1,3.85,5.23,5.23,0,0,1-2.35,2.15c-2.43,1-5.38-1.08-6.65-3.28-2.06-3.57-1.45-8.23-1.09-12.14.24-2.66-3.41-3.14-4.66-1.26A68.22,68.22,0,0,1,306.43,298H310l-7.61-8.44a2.53,2.53,0,0,0-3.92.51l-8.16,11a47.88,47.88,0,0,1-3.37,4.4c-.8.85-1.77,1.65-2.83,1a7.68,7.68,0,0,1-2.36-3.24,58.13,58.13,0,0,1-2.36-5.51,74.47,74.47,0,0,1-3.46-12.46c-.47-2.53-4.17-2.23-4.82,0a72.35,72.35,0,0,1-15.35,27.82l4.17,1.1-5.62-14.53a2.52,2.52,0,0,0-4.82,0A64.57,64.57,0,0,1,232,326.17h3.53l-5-6.29a2.47,2.47,0,0,0-3.28-.19,2.55,2.55,0,0,0-.65,3.22c-.12-.28.09.35.1.42-.09-.44,0,.21,0,.33,0,.58.09-.23-.05.28,0,.1-.27.67-.09.31A4.14,4.14,0,0,1,225,326a6.12,6.12,0,0,1-5.33.75c-2-.84-3.57-3.3-4.36-5.38a36.63,36.63,0,0,1-1.86-8.42,2.53,2.53,0,0,0-2.17-2.46,2.47,2.47,0,0,0-2.74,1.8,124.7,124.7,0,0,0,.22,35.52,2.51,2.51,0,0,0,3.07,1.75,2.58,2.58,0,0,0,1.75-3.08Z" transform="translate(-191.38 -273.97)"/><path d="M220.17,343.21c12.86,0,12.89-20,0-20s-12.89,20,0,20Z" transform="translate(-191.38 -273.97)"/><path d="M214.7,328.85c10.35,7.11,22.58,7.29,29.83-4.06,1-1.51,1.58-3.72,2.86-5-.25.24,1.18-.33,1.68-.55,5.34-2.34,9.47-5.16,11.2-11.08,2-6.84-5-15-12.3-12.3l-7.15,2.7c-5,1.88-8.64,6.72-7,12.3.54,1.83.46,2.76-.94,4.16-5.6,5.62-2.55,14.25,4.41,16.72,10.26,3.63,24.75,3.67,29.2-8.22,2.91-7.79,5.73-14.52,12.83-19.53l-14.69-6c.47,2.4-.5,4.17-1.77,6.13-1.91,3-3.54,5.83-4.12,9.37-1.31,8,4.21,16.94,12.83,17.26,8,.29,13.11-6.35,17-12.49a54.22,54.22,0,0,0,7.72-20.84H277c1.74,5.3-6.25,10.21-9.65,13-6.07,4.94-11,10.35-13.45,17.95-1.9,5.93,3.3,13,9.65,12.66,25.39-1.56,45.07-21.49,45.57-47.09l-19.64,2.66c1.21,4.2-.89,8.57-2,12.62a37.62,37.62,0,0,0-1,17.63,9.7,9.7,0,0,0,7,7c21.58,3.92,26.69-24,27.17-39.76h-20c.19,6.35-.45,12.48,4,17.53,2.4,2.72,6.37,3.32,9.73,2.57,6.94-1.56,10.06-9.34,13.48-14.88l-18.63-5a126,126,0,0,1-1.81,28.5c-2.37,12.75,14.67,17.31,19.28,5.31,3.5-9.08,7.14-18.5,13.72-25.85l-16.72-4.41a60.07,60.07,0,0,1-.09,20.11c-.86,4.9.89,9.83,5.79,11.8a10,10,0,0,0,12.48-4.09,97.87,97.87,0,0,0,9.76-24.55L332,298.44a41.33,41.33,0,0,1-8.46,21.8c-3.34,4.24-4.13,10,0,14.14a10.11,10.11,0,0,0,14.14,0,132.31,132.31,0,0,0,22.85-32l-18.28-7.71a178.62,178.62,0,0,1-13.74,36c-5,9.73,7.57,20.73,15.71,12.12a421.3,421.3,0,0,0,27.41-32.26l-18.28-7.71c-2.14,7.08-5,14.27-6.44,21.51-1.72,8.52,4.57,15.76,13.25,15,6.74-.62,11.61-6,15.91-10.7a112,112,0,0,0,12.83-17.18l-18.28-7.71-5,12.29c-1.75,4.31-4.18,8.49-3.14,13.29,2.26,10.41,13.94,9,22.13,9.15s18.18.21,20.54-9.83c2-8.38-3.31-17.72-8.72-23.66-4.6-5.06-12.27-3-15.7,2a49,49,0,0,0-4.74,9.7c-.91,2.29-1.68,5.66-3.46,7.49-1.47,1.5-3.46,1.66-5.48,1.84-4.32.38-8.71.28-13,.38-18.7.42-37.39.61-56.09.91-18.36.29-36.72.68-55.07,1.5-8.67.39-18.54-.13-26.95,2.25-8.77,2.49-14.13,9.07-19.06,16.29-6.56,9.62,7.73,19.77,15.71,12.12,5-4.77,10-9.85,16.53-12.45,6.85-2.73,14.72-3.37,22-4.27,16.82-2.1,33.75-3.29,50.69-3.91s33.95-.68,50.92-.52c7,.07,14.82-.85,21.4,2,6.88,3,13.41,7.34,19.61,11.52,9.6,6.47,19.9-7.76,12.12-15.7-11.5-11.74-28-13-43.39-10.34-8.09,1.38-15.95,3.83-24,5.23a147.62,147.62,0,0,1-23,1.83c-33,.47-65.91-5.35-98.59,1.82l11.3,14.69a96.82,96.82,0,0,0,10.4-38.61l-18.63,5.05c-.6-1,1.36-3.63-.51-1.19l18.27,7.7q5.28-17.49,11.3-34.74L232.24,292c1.54,1.52,2.77,4.82,4.42,7.19,3,4.28,7.15,7.27,12.46,7.7,9.83.79,19.56-6.3,23.37-15.13l-18.28-2.39C256,300.9,269.34,306,279.13,301.12c.44-.23,2.75-1.22,2.85-1.69s-3.27-1.73-3.77-1.32,3.58,2.46,4.09,2.67a10.66,10.66,0,0,0,5.18.68c6.12-.44,10.59-6,14.91-9.81l-16.71-4.41a14.51,14.51,0,0,0,10.15,10.32c3.94,1.11,11.28.7,14.43-2.44a6.38,6.38,0,0,0,1.7-1q-4.71-3-2.2-.53c1.34,1.95,4.22,3.47,6.39,4.2a16.6,16.6,0,0,0,14-1.49l-12.12-1.56c1.19,1.32,1.68,4.9,2.5,6.42a18.41,18.41,0,0,0,7,7.37,14.37,14.37,0,0,0,10.38,1.34,17,17,0,0,0,4.54-2.13l2-1.57q2.81-2-2,.33l-5-1.37c4.73,2.07,8.36,4.25,13.79,3.45s9.25-3.79,12.49-8.11l-18.27-7.7c-1,7.09,1.86,13.63,9.28,15.67s13-3,17-8.39l-18.27-2.39c1.08,7,5.61,13,12.77,14.36,6.81,1.27,14.56-3.08,15.82-10.18H362.8c1.6,8.06,8.49,12.63,16.29,13.28l-9.64-7.34.91,2.68c1.75,5.1,6.87,8.47,12.3,7,5-1.37,8.74-7.17,7-12.3l-.92-2.68c-1.53-4.51-5-6.95-9.64-7.34q2.07,3.09,3,1.4c-1.87-9.43-17.57-9.65-19.28,0l1-1.86,4.41-2.57c-1.68.61-1.35.62,1,.05l4.41,2.57q-1.86-1.71-.32.24a14.38,14.38,0,0,1-.53-2.61c-.59-3.79-4.82-6.75-8.31-7.16-4.3-.51-7.45,1.42-10,4.77l4.45-1.27,4.42,2.57.24.22,1,7.7.16-1.09c1.65-11.35-11.26-17-18.27-7.7-.51.66,3-3.24,3.58-1.15-.19-.7-4.8-2.35-4.89-2.37a13.62,13.62,0,0,0-10.36,1.71c-.73.43-3.21,1.69-3.49,2.67q8.22,3.68,6.77.33a12.11,12.11,0,0,1-.54-1.57c-.31-3.33-3.22-7-5.34-9.41-3-3.29-8.43-3.68-12.12-1.56l2.62-.06c1.27.71,1.53.71.77,0-.1-.57-2-1.82-2.36-2.06a15.24,15.24,0,0,0-9.58-2.91,22.18,22.18,0,0,0-8.71,2.43c-.47.23-2.48,1-2.67,1.44-.42,1,.83-.07,1.21.21l3.59,3.59v.27c-2.06-7.6-11.19-9.29-16.71-4.41l-3.46,3.06c-.83.74-3,1.67-1.3,1.43l7.71,1c1.32.9-1.69-1.51-1.6-1.44a13.84,13.84,0,0,0-4-1.9,16.06,16.06,0,0,0-8.59.15c-1.55.45-5.59,1.74-6.49,3.23-.74,1.22.51-.12,1.78.55,1,.55,1.6,2.79,1.23.42-1.24-8.15-15-10-18.27-2.39a10.12,10.12,0,0,1-2.81,4.35c-.25.2-1.63.68-1.72,1-.26.86,3.21.52,2.91,1.68.18-.7-2.16-3.85-2.57-4.59a28.55,28.55,0,0,0-4.65-6.21c-5.63-5.55-14.26-2.6-16.71,4.41q-6,17.25-11.3,34.75a10,10,0,0,0,5.79,11.79c5,2,9.36,0,12.49-4.09,4.22-5.52,4-13.2.51-19-5.27-8.82-18.08-4.66-18.64,5a72.36,72.36,0,0,1-7.67,28.52A10.13,10.13,0,0,0,222.14,354c29.45-6.46,59.79-1.08,89.58-1.09a192,192,0,0,0,44.92-5.37c11.12-2.66,25.93-6.56,35.07,2.77l12.12-15.71a137.1,137.1,0,0,0-22.32-12.71c-8.61-3.69-17.63-3.44-26.83-3.54-18.28-.19-36.56-.15-54.83.57-18.5.73-36.94,2.21-55.28,4.7-8.46,1.14-16.84,2.27-24.71,5.75-8.25,3.64-15,9.79-21.4,16l15.71,12.12c1.57-2.31,3.26-5.15,5.74-6.56,2.91-1.66,7-1.25,10.22-1.44q13.76-.77,27.52-1.21c18.69-.63,37.38-.9,56.08-1.16,18-.26,36.27.38,54.18-1.12,8.81-.74,16.42-3.65,21.56-11.16,3.75-5.48,4.86-12.23,8.58-17.71l-15.7,2a12,12,0,0,1,2.26,3.29,5.1,5.1,0,0,1,.62,1.74c.37,1.89.47,2,.28.47l2.57-4.41-.74.71,4.41-2.58c-1.79.72.79.33-2.38.2-1.87-.08-3.77-.06-5.64-.08-3.49-.05-7.09.14-10.56-.26l5.05,1.36-.86-.61,4.6,6-.13-.93v5.32c2.12-6.88,5.41-13.58,8.11-20.26,1.84-4.55-1.63-10.13-5.79-11.8a10.06,10.06,0,0,0-12.49,4.09,84.13,84.13,0,0,1-8,11.21q-2.25,2.6-4.69,5c-1.34,1.34-2.69,1.65-1.07,1.81l5,1.37-.76-.43,3.59,3.59-.49-.82,1.36,5c-.06-1,1.92-6.42,2.66-8.87l3.36-11.11a10,10,0,0,0-5.79-11.8c-5-2-9.35,0-12.49,4.09a370.4,370.4,0,0,1-24.29,28.22l15.71,12.12A204.14,204.14,0,0,0,361.57,300c2.82-10.66-13-18.09-18.28-7.71a114.19,114.19,0,0,1-19.72,27.95l14.14,14.14A65.24,65.24,0,0,0,352,298.44c1-11.31-17-13.48-19.64-2.66a78,78,0,0,1-7.75,19.77l18.28,7.7a88.71,88.71,0,0,0,.1-30.75c-1.24-7.35-12-9.68-16.72-4.41-9,10.09-14.05,22.19-18.85,34.68l19.28,5.31a148.64,148.64,0,0,0,2.53-33.81c-.44-9.87-13.32-13.67-18.64-5-1.56,2.53-2.95,5.76-4.86,8l4.42-2.57-1.09.24,9.73,2.58-.66-.75,2.58,4.42c-.32-2.06,0-4.87-.08-7.06-.4-12.86-19.62-12.89-20,0a56.71,56.71,0,0,1-2,13.71c-.51,1.86-1.23,3.64-1.85,5.43-1,2.81-2.1.59,2,1.34l7,7c-.79-4.1,1.65-8.93,2.65-12.82,1.49-5.78,2-11.62.36-17.43-3.12-10.88-19.43-8.67-19.65,2.66a27.38,27.38,0,0,1-25.57,27.09l9.64,12.65c2.07-6.46,10.55-10.25,15-15,6.76-7.1,11.27-16.79,8.07-26.58a10.29,10.29,0,0,0-9.64-7.35c-4,0-9,3.07-9.65,7.35a42.29,42.29,0,0,1-2.93,11,39.31,39.31,0,0,1-2.77,5c-.59.93-1.21,1.84-1.87,2.72-1.18,1.1-.47,1.05,2.13-.13l5.05,1.36c.87.39,2.26,5.18,1.59,5.13a21.48,21.48,0,0,0,1.52-2.43,33.17,33.17,0,0,0,3.53-6.92c1.76-5,1.66-10.08.65-15.21-1.18-6-9.63-9.54-14.69-6a54.11,54.11,0,0,0-16.77,18.19c-1.65,3-4.12,7.31-4.45,10.86q-1.49,3.94,3.16-2a25.33,25.33,0,0,1-3.26,0,22.49,22.49,0,0,1-5.29-1.36L247,329.19a23.59,23.59,0,0,0,6.08-23.62l-7,12.3,7.15-2.7L241,302.87c2.85-2.78,3.31-3.57,1.4-2.34l.32-.1c-1.45.07-3.19,1.23-4.53,1.9a20.52,20.52,0,0,0-7.68,6.89c-.33.48-3.69,5.79-3.54,5.95,2.09,2.1,2-1,2-1.06,0-.23-3.73-2.25-4.14-2.53-4.45-3.06-11.09-.83-13.68,3.59-2.9,5-.87,10.61,3.59,13.68Z" transform="translate(-191.38 -273.97)"/></svg>